<svg xmlns="http://www.w3.org/2000/svg" version="1.0" preserveAspectRatio="xMidYMid meet" viewBox="27 56 90.34 84.4">

<g transform="translate(0.000000,166.000000) scale(0.100000,-0.100000)" fill="#000000" stroke="none">
<path d="M380 1075 c0 -24 -3 -25 -55 -25 l-55 0 0 -375 0 -375 110 0 110 0 0 25 c0 25 -1 25 -85 25 l-85 0 0 320 0 320 30 0 30 0 0 -290 0 -290 55 0 c54 0 55 0 55 30 0 25 -4 30 -25 30 l-25 0 0 290 0 290 73 0 c49 0 85 -6 115 -20 l42 -19 0 -151 c0 -82 2 -150 5 -150 2 0 16 5 30 12 l25 11 0 138 0 139 27 17 c19 13 52 19 115 21 l88 4 0 -146 c0 -133 2 -146 19 -156 11 -5 22 -10 25 -10 3 0 6 56 6 125 l0 125 30 0 30 0 0 -140 0 -139 30 -16 30 -16 0 186 0 185 -60 0 c-57 0 -60 1 -60 25 l0 25 -115 0 c-96 0 -123 -3 -155 -20 -38 -20 -39 -20 -82 0 -35 16 -65 20 -160 20 l-118 0 0 -25z"/>
<path d="M720 632 c-80 -37 -151 -71 -157 -75 -10 -6 -13 -47 -13 -148 l0 -139 30 0 30 0 0 130 c0 72 2 130 5 130 3 0 23 -9 45 -20 l39 -20 -14 -35 c-8 -19 -15 -49 -15 -68 0 -32 3 -34 100 -82 l100 -49 101 49 101 50 -5 50 c-3 28 -8 59 -12 71 -6 18 2 25 60 49 36 16 62 31 58 35 -8 8 -300 141 -305 139 -2 0 -68 -30 -148 -67z m207 -18 c32 -14 74 -33 93 -41 l35 -15 -84 -39 c-46 -22 -91 -39 -100 -39 -9 0 -52 18 -96 39 l-80 39 85 40 c47 23 86 41 87 41 1 1 28 -11 60 -25z m-54 -194 c7 0 36 11 65 25 l53 25 15 -36 c8 -19 13 -38 10 -42 -2 -4 -36 -23 -75 -42 l-71 -34 -70 34 c-73 36 -85 54 -60 100 10 18 12 18 65 -6 31 -13 61 -24 68 -24z"/>
</g>
</svg>